<?xml version="1.0" encoding="UTF-8"?>
<svg id="Layer_1" xmlns="http://www.w3.org/2000/svg" version="1.1" viewBox="0 0 122.9 111.5">
  <!-- Generator: Adobe Illustrator 29.3.1, SVG Export Plug-In . SVG Version: 2.1.0 Build 151)  -->
  <defs>
    <style>
      .st0 {
        fill: #fff;
        fill-rule: evenodd;
      }
    </style>
  </defs>
  <path class="st0" d="M50.2,38.6c9.5,0,17.2,7.7,17.1,17.2,0,9.5-7.7,17.2-17.2,17.1-9.5,0-17.1-7.7-17.1-17.2,0-9.5,7.7-17.2,17.2-17.2,0,0,0,0,0,0ZM91.3,94v-8.7h-23.8c2.1-1.9,4-3.9,5.6-6.2h21.3c1.7,0,3.1,1.4,3.1,3.1v11.8c4.7,1.7,7.1,6.9,5.4,11.5-1.7,4.7-6.9,7.1-11.5,5.4-4.7-1.7-7.1-6.9-5.4-11.5.9-2.5,2.9-4.5,5.4-5.4ZM89.2,30.7h-13.7c-1.3-2.2-2.8-4.2-4.5-6.2h15.1v-7c-4.7-1.7-7.1-6.8-5.5-11.5,1.7-4.7,6.8-7.1,11.5-5.5,4.7,1.7,7.1,6.8,5.5,11.5-.9,2.5-2.8,4.5-5.3,5.4v10.1c0,1.7-1.4,3.1-3.1,3.1,0,0,0,0,0,0ZM122.9,15c0-5-4.1-9-9-9-5,0-9,4.1-9,9,0,3.6,2.1,6.8,5.3,8.2v18h-30.1c.6,2,1,4.1,1.3,6.2h31.9c1.7,0,3.1-1.4,3.1-3.1v-20.7c3.9-1.1,6.5-4.7,6.5-8.7ZM122.7,64.9c0-5-3.9-9-8.9-9.1-3.9,0-7.3,2.4-8.6,6h-24.4c-.4,2.1-1,4.1-1.7,6.2h26.1c1.6,4.7,6.8,7.2,11.5,5.5,3.6-1.3,6.1-4.7,6-8.6ZM49.6,105.3h-3.6c-3.4,0-6.1-2.7-6.1-6.1v-6.3c-3.5-.8-6.9-2.1-10-3.8l-4.2,4.2c-2.4,2.4-6.3,2.4-8.6,0l-5.1-5.1c-2.4-2.4-2.4-6.3,0-8.7l3.8-3.8c-2-3.2-3.5-6.7-4.5-10.3h-5.2c-3.4,0-6.1-2.7-6.1-6.1v-7.2c0-3.4,2.7-6.1,6.1-6.1h5.1c.9-3.7,2.4-7.2,4.4-10.4l-3.7-3.7c-2.4-2.4-2.4-6.2,0-8.6l5.1-5.1c2.4-2.4,6.3-2.4,8.6,0l4,4c3.2-1.8,6.6-3.1,10.1-3.9v-6c0-3.4,2.8-6.1,6.1-6.1h7.2c3.2,0,5.9,2.6,6.1,5.8v20.5c-2.7-1-5.6-1.5-8.4-1.5h-2.5c-13.6-.3-24.8,10.5-25.1,24.1s10.5,24.8,24.1,25.1c.3,0,.7,0,1,0h2.5c2.9,0,5.7-.5,8.4-1.5v20.8c-.2,3.3-2.8,5.8-6.1,5.8h-3.6Z"/>
</svg>